<svg width="16" height="26" viewBox="0 0 16 26" fill="none" xmlns="http://www.w3.org/2000/svg">
<path d="M8 26C3.58828 26 0 22.3557 0 17.875V6.5C0 5.90094 0.47793 5.41673 1.0666 5.41673C1.65547 5.41673 2.1334 5.90094 2.1334 6.5V17.875C2.1334 21.1597 4.76484 23.8333 8 23.8333C11.2352 23.8333 13.8666 21.1597 13.8666 17.875V5.95827C13.8666 3.86751 12.192 2.16673 10.1334 2.16673C8.07461 2.16673 6.4 3.86751 6.4 5.95827V16.7917C6.4 17.6875 7.11777 18.4167 8 18.4167C8.88223 18.4167 9.6 17.6875 9.6 16.7917V6.5C9.6 5.90094 10.0779 5.41673 10.6666 5.41673C11.2555 5.41673 11.7334 5.90094 11.7334 6.5V16.7917C11.7334 18.8825 10.0586 20.5833 8 20.5833C5.94141 20.5833 4.2666 18.8825 4.2666 16.7917V5.95827C4.2666 2.67375 6.89805 0 10.1334 0C13.3686 0 16 2.67375 16 5.95827V17.875C16 22.3557 12.4117 26 8 26Z" fill="#A4A4AC"/>
</svg>
