<svg width="553" height="441" fill="none" xmlns="http://www.w3.org/2000/svg"><path d="M528 16H24a8 8 0 00-8 8v136H0V24C0 10.745 10.745 0 24 0h504c13.255 0 24 10.745 24 24v156h-16V24a8 8 0 00-8-8zM0 180v120c0 13.255 10.745 24 24 24h504c13.255 0 24-10.745 24-24V200h-16v100a8 8 0 01-8 8H24a8 8 0 01-8-8V180H0z" fill="#fff"/><path d="M436.289 180.01h-24.25l-.082-69.28h-43.945V90.805h112.804v19.926h-44.527v69.279zM110 200l-11.5 33h-26l20-53H134l7 20h-31zm66.5 33l-50-142H149l53.5 142h-26zM100 160l14.5-39 12 31-3 8H100zm139-68.99h51.485C306.657 89.745 339 97.408 339 138.183c0 23.102-10.382 35.574-22.323 41.817h-28.275l-7.55-15.791h8.677c8.262-.014 24.719-5.343 24.719-26.568 0-21.255-16.502-25.485-24.753-24.942h-26.238v51.51H239v-73.2z" fill="#fff"/><path d="M263.255 180v-15.788H239V180h24.255zm34.668 19.895h26.48L340.621 233H313.76l-15.837-33.105zm-58.923.003h24.255V233H239v-33.102zm197.293 0h-24.255V233h24.255v-33.102zM49 429.44V440H.04v-8.4l30.72-37.04H.68V384H47.8v8.4l-30.64 37.04H49zM113.232 384v56h-12.96v-22.96h-25.44V440h-12.96v-56h12.96v22.08h25.44V384h12.96zm42.689 56.96c-8 0-14.24-2.213-18.72-6.64-4.426-4.427-6.64-10.747-6.64-18.96V384h12.96v30.88c0 10.027 4.16 15.04 12.48 15.04 4.054 0 7.147-1.2 9.28-3.6 2.134-2.453 3.2-6.267 3.2-11.44V384h12.8v31.36c0 8.213-2.24 14.533-6.72 18.96-4.426 4.427-10.64 6.64-18.64 6.64zm78.407-.96l-10.8-15.6h-11.92V440h-12.96v-56h24.24c4.96 0 9.253.827 12.88 2.48 3.68 1.653 6.507 4 8.48 7.04 1.973 3.04 2.96 6.64 2.96 10.8 0 4.16-1.013 7.76-3.04 10.8-1.973 2.987-4.8 5.28-8.48 6.88l12.56 18h-13.92zm-.24-35.68c0-3.147-1.013-5.547-3.04-7.2-2.027-1.707-4.987-2.56-8.88-2.56h-10.56v19.52h10.56c3.893 0 6.853-.853 8.88-2.56 2.027-1.707 3.04-4.107 3.04-7.2zM298.916 428h-26l-4.96 12h-13.28l24.96-56h12.8l25.04 56h-13.6l-4.96-12zm-4.08-9.84l-8.88-21.44-8.88 21.44h17.76zM378.639 384l-24.24 56h-12.8l-24.16-56h14l17.04 40 17.28-40h12.88zm9.236 0h12.96v45.44h28.08V440h-41.04v-56zm96.201 45.6V440h-43.36v-56h42.32v10.4h-29.44v12.16h26v10.08h-26v12.96h30.48zm67.931-45.6l-24.24 56h-12.8l-24.16-56h14l17.04 40 17.28-40h12.88z" fill="#fff"/></svg>