<svg width="553" height="441" viewBox="0 0 553 441" fill="none" xmlns="http://www.w3.org/2000/svg">
<path d="M528 16H24C19.5817 16 16 19.5817 16 24V160H0V24C0 10.7452 10.7452 0 24 0H528C541.255 0 552 10.7452 552 24V180H536V24C536 19.5817 532.418 16 528 16Z" fill="white"/>
<path d="M0 180V300C0 313.255 10.7452 324 24 324H528C541.255 324 552 313.255 552 300V200H536V300C536 304.418 532.418 308 528 308H24C19.5817 308 16 304.418 16 300V180H0Z" fill="white"/>
<path d="M436.289 180.01H412.039L411.957 110.73H368.012V90.8047H480.816V110.731H436.289V180.01Z" fill="white"/>
<path d="M110 200L98.5 233H72.5L92.5 180H134L141 200H110Z" fill="white"/>
<path d="M176.5 233L126.5 91H149L202.5 233H176.5Z" fill="white"/>
<path d="M100 160L114.5 121L126.5 152L123.5 160H100Z" fill="white"/>
<path d="M239 91.0099H290.485C306.657 89.7447 339 97.4081 339 138.183C339 161.285 328.618 173.757 316.677 180H288.402L280.852 164.209L280.853 164.209H289.529C297.791 164.195 314.248 158.866 314.248 137.641C314.248 116.386 297.746 112.156 289.495 112.699H263.257V164.209H239V91.0099Z" fill="white"/>
<path d="M263.255 180V164.212H239V180H263.255Z" fill="white"/>
<path d="M297.923 199.895H324.403L340.621 233H313.76L297.923 199.895Z" fill="white"/>
<path d="M239 199.898L263.255 199.898V233H239V199.898Z" fill="white"/>
<path d="M436.293 199.898L412.038 199.898V233H436.293V199.898Z" fill="white"/>
<path d="M49 429.44V440H0.0399933V431.6L30.76 394.56H0.679993V384H47.8V392.4L17.16 429.44H49Z" fill="white"/>
<path d="M113.232 384V440H100.272V417.04H74.8319V440H61.8719V384H74.8319V406.08H100.272V384H113.232Z" fill="white"/>
<path d="M155.921 440.96C147.921 440.96 141.681 438.747 137.201 434.32C132.775 429.893 130.561 423.573 130.561 415.36V384H143.521V414.88C143.521 424.907 147.681 429.92 156.001 429.92C160.055 429.92 163.148 428.72 165.281 426.32C167.415 423.867 168.481 420.053 168.481 414.88V384H181.281V415.36C181.281 423.573 179.041 429.893 174.561 434.32C170.135 438.747 163.921 440.96 155.921 440.96Z" fill="white"/>
<path d="M234.328 440L223.528 424.4H211.608V440H198.648V384H222.888C227.848 384 232.141 384.827 235.768 386.48C239.448 388.133 242.275 390.48 244.248 393.52C246.221 396.56 247.208 400.16 247.208 404.32C247.208 408.48 246.195 412.08 244.168 415.12C242.195 418.107 239.368 420.4 235.688 422L248.248 440H234.328ZM234.088 404.32C234.088 401.173 233.075 398.773 231.048 397.12C229.021 395.413 226.061 394.56 222.168 394.56H211.608V414.08H222.168C226.061 414.08 229.021 413.227 231.048 411.52C233.075 409.813 234.088 407.413 234.088 404.32Z" fill="white"/>
<path d="M298.916 428H272.916L267.956 440H254.676L279.636 384H292.436L317.476 440H303.876L298.916 428ZM294.836 418.16L285.956 396.72L277.076 418.16H294.836Z" fill="white"/>
<path d="M378.639 384L354.399 440H341.599L317.439 384H331.439L348.479 424L365.759 384H378.639Z" fill="white"/>
<path d="M387.875 384H400.835V429.44H428.915V440H387.875V384Z" fill="white"/>
<path d="M484.076 429.6V440H440.716V384H483.036V394.4H453.596V406.56H479.596V416.64H453.596V429.6H484.076Z" fill="white"/>
<path d="M552.007 384L527.767 440H514.967L490.807 384H504.807L521.847 424L539.127 384H552.007Z" fill="white"/>
</svg>
